<svg width="512" height="538" viewBox="0 0 512 538" fill="none" xmlns="http://www.w3.org/2000/svg">
<path d="M0 179.2C0 80.2306 80.2306 0 179.2 0H332.8C431.769 0 512 80.2306 512 179.2V358.4C512 457.369 431.769 537.6 332.8 537.6H179.2C80.2306 537.6 0 457.369 0 358.4V179.2Z" fill="#42454A"/>
<path fill-rule="evenodd" clip-rule="evenodd" d="M254.86 76.8H257.14C295.167 76.8 325.254 76.8 348.798 80.2113C373.114 83.7477 392.413 91.1777 407.429 107.395C422.261 123.398 428.896 143.652 432.057 169.192C435.2 194.322 435.2 226.56 435.2 267.871V269.729C435.2 311.04 435.2 343.278 432.075 368.39C428.896 393.966 422.261 414.202 407.447 430.205C392.413 446.422 373.132 453.852 348.798 457.389C325.254 460.8 295.167 460.8 257.158 460.8H254.842C216.833 460.8 186.746 460.8 163.202 457.389C138.868 453.852 119.587 446.422 104.571 430.205C89.7392 414.202 83.1042 393.948 79.9429 368.408C76.8 343.278 76.8 311.04 76.8 269.729V267.871C76.8 226.56 76.8 194.322 79.9245 169.21C83.1042 143.634 89.7392 123.398 104.553 107.395C119.587 91.1777 138.868 83.7477 163.202 80.2113C186.746 76.8 216.833 76.8 254.86 76.8ZM167.282 106.716C146.569 109.717 134.254 115.379 125.046 125.309C115.673 135.454 110.159 149.349 107.292 172.425C104.388 195.751 104.369 226.364 104.369 268.8C104.369 311.236 104.388 341.849 107.31 365.175C110.177 388.251 115.654 402.146 125.046 412.291C134.254 422.221 146.569 427.883 167.282 430.884C188.547 433.974 216.576 434.009 256 434.009C295.424 434.009 323.453 433.974 344.718 430.884C365.431 427.883 377.746 422.221 386.935 412.291C396.346 402.146 401.823 388.251 404.708 365.175C407.612 341.849 407.631 311.236 407.631 268.8C407.631 226.364 407.612 195.751 404.69 172.425C401.823 149.349 396.346 135.454 386.954 125.309C377.746 115.379 365.431 109.717 344.718 106.716C323.453 103.626 295.424 103.591 256 103.591C216.576 103.591 188.547 103.626 167.282 106.716ZM199.318 148.242H312.682C319.667 148.242 325.732 148.242 331.025 149.617C338.035 151.441 344.427 155.026 349.56 160.011C354.693 164.995 358.385 171.205 360.267 178.015C361.7 183.195 361.7 189.053 361.682 195.876V198.858C361.682 205.645 361.682 211.539 360.267 216.683C358.39 223.495 354.701 229.707 349.571 234.694C344.442 239.682 338.052 243.271 331.043 245.099C325.713 246.492 319.685 246.492 312.664 246.474H199.336C192.352 246.474 186.287 246.474 180.993 245.099C173.984 243.275 167.591 239.69 162.459 234.706C157.326 229.721 153.633 223.512 151.752 216.701C150.318 211.521 150.336 205.663 150.336 198.841C150.337 197.846 150.337 196.852 150.336 195.858C150.336 189.071 150.336 183.177 151.752 178.033C153.629 171.221 157.317 165.01 162.447 160.022C167.577 155.034 173.967 151.446 180.975 149.617C186.305 148.224 192.333 148.242 199.354 148.242H199.318ZM200.862 175.033C191.433 175.033 189.411 175.14 188.106 175.497C185.771 176.106 183.641 177.301 181.931 178.963C180.222 180.624 178.992 182.694 178.365 184.963C177.997 186.231 177.887 188.178 177.887 197.358C177.887 206.521 177.997 208.485 178.365 209.753C178.992 212.023 180.222 214.092 181.931 215.754C183.641 217.415 185.771 218.61 188.106 219.219C189.411 219.577 191.414 219.684 200.862 219.684H311.138C320.567 219.684 322.589 219.577 323.894 219.219C326.229 218.61 328.359 217.415 330.069 215.754C331.778 214.092 333.008 212.023 333.635 209.753C334.003 208.485 334.113 206.538 334.113 197.358C334.113 188.196 334.003 186.231 333.635 184.963C333.008 182.694 331.778 180.624 330.069 178.963C328.359 177.301 326.229 176.106 323.894 175.497C322.589 175.14 320.586 175.033 311.138 175.033H200.862Z" fill="#F4F4F4"/>
<path d="M200.862 286.66C200.862 291.397 198.925 295.94 195.478 299.29C192.031 302.639 187.357 304.521 182.482 304.521C177.608 304.521 172.933 302.639 169.486 299.29C166.039 295.94 164.103 291.397 164.103 286.66C164.103 281.924 166.039 277.381 169.486 274.031C172.933 270.682 177.608 268.8 182.482 268.8C187.357 268.8 192.031 270.682 195.478 274.031C198.925 277.381 200.862 281.924 200.862 286.66ZM200.862 358.102C200.862 362.839 198.925 367.382 195.478 370.732C192.031 374.081 187.357 375.963 182.482 375.963C177.608 375.963 172.933 374.081 169.486 370.732C166.039 367.382 164.103 362.839 164.103 358.102C164.103 353.365 166.039 348.823 169.486 345.473C172.933 342.124 177.608 340.242 182.482 340.242C187.357 340.242 192.031 342.124 195.478 345.473C198.925 348.823 200.862 353.365 200.862 358.102ZM274.379 286.66C274.379 291.397 272.443 295.94 268.996 299.29C265.549 302.639 260.875 304.521 256 304.521C251.125 304.521 246.451 302.639 243.004 299.29C239.557 295.94 237.621 291.397 237.621 286.66C237.621 281.924 239.557 277.381 243.004 274.031C246.451 270.682 251.125 268.8 256 268.8C260.875 268.8 265.549 270.682 268.996 274.031C272.443 277.381 274.379 281.924 274.379 286.66ZM274.379 358.102C274.379 362.839 272.443 367.382 268.996 370.732C265.549 374.081 260.875 375.963 256 375.963C251.125 375.963 246.451 374.081 243.004 370.732C239.557 367.382 237.621 362.839 237.621 358.102C237.621 353.365 239.557 348.823 243.004 345.473C246.451 342.124 251.125 340.242 256 340.242C260.875 340.242 265.549 342.124 268.996 345.473C272.443 348.823 274.379 353.365 274.379 358.102ZM347.897 286.66C347.897 291.397 345.961 295.94 342.514 299.29C339.067 302.639 334.392 304.521 329.518 304.521C324.643 304.521 319.969 302.639 316.522 299.29C313.075 295.94 311.138 291.397 311.138 286.66C311.138 281.924 313.075 277.381 316.522 274.031C319.969 270.682 324.643 268.8 329.518 268.8C334.392 268.8 339.067 270.682 342.514 274.031C345.961 277.381 347.897 281.924 347.897 286.66ZM347.897 358.102C347.897 362.839 345.961 367.382 342.514 370.732C339.067 374.081 334.392 375.963 329.518 375.963C324.643 375.963 319.969 374.081 316.522 370.732C313.075 367.382 311.138 362.839 311.138 358.102C311.138 353.365 313.075 348.823 316.522 345.473C319.969 342.124 324.643 340.242 329.518 340.242C334.392 340.242 339.067 342.124 342.514 345.473C345.961 348.823 347.897 353.365 347.897 358.102Z" fill="#F4F4F4"/>
</svg>
